# xmcd
#
# Track frame offsets:
#	150
#	19398
#	39547
#	61131
#	85427
#	102460
#	122478
#	141576
#	161198
#	180610
#	218573
#	241480
#	259433
#	280052
#	298138
#	318527
#
# Disc length: 4559 seconds
#
# Revision: 0
# Processed by: cddbd v1.5.2PL0 Copyright (c) Steve Scherf et al.
# Submitted via: EZCDAudioConverter 1.0.8.1
#
DISCID=fc11cd10
DTITLE=Kauko Röyhkä - Olen Messias - Valitut Palat 1980-2012 cd6
DYEAR=2012
DGENRE=
TTITLE0=Teen töitä kuin härkä
TTITLE1=Jälleen yksi sateinen päivä (live)
TTITLE2=Lauralle (live)
TTITLE3=Hiekkarantaa
TTITLE4=Saarenmaa
TTITLE5=Kesätyttö
TTITLE6=Joulu Thaimaassa
TTITLE7=Aamu
TTITLE8=Pieni ja hento ote
TTITLE9=Paska kaupunki (live)
TTITLE10=Etsijät (live)
TTITLE11=Kovat pojat (2012)
TTITLE12=Kevät (2012)
TTITLE13=Peke (2012)
TTITLE14=Huippumies (2012)
TTITLE15=Paska kaupunki (2012)
EXTD=
EXTT0=
EXTT1=
EXTT2=
EXTT3=
EXTT4=
EXTT5=
EXTT6=
EXTT7=
EXTT8=
EXTT9=
EXTT10=
EXTT11=
EXTT12=
EXTT13=
EXTT14=
EXTT15=
PLAYORDER=
